<svg width="396" height="252" viewBox="0 0 396 252" fill="none" xmlns="http://www.w3.org/2000/svg">
<g filter="url(#filter0_b_685_424)">
<g clip-path="url(#clip0_685_424)">
<rect width="396" height="252" rx="24" fill="url(#paint0_radial_685_424)" fill-opacity="0.5"/>
<path d="M180.838 85.39C181.445 85.5207 181.935 85.81 182.308 86.258C182.691 86.706 182.882 87.2333 182.882 87.84C182.882 88.6427 182.607 89.2867 182.056 89.772C181.515 90.2573 180.726 90.5 179.69 90.5H176.022V80.63H179.634C180.623 80.63 181.375 80.8493 181.888 81.288C182.401 81.7267 182.658 82.3287 182.658 83.094C182.658 83.7287 182.485 84.242 182.14 84.634C181.804 85.026 181.37 85.278 180.838 85.39ZM177.296 84.956H179.424C180.049 84.956 180.525 84.8113 180.852 84.522C181.188 84.2327 181.356 83.8267 181.356 83.304C181.356 82.8 181.193 82.4033 180.866 82.114C180.539 81.8247 180.04 81.68 179.368 81.68H177.296V84.956ZM179.452 89.436C180.124 89.436 180.642 89.282 181.006 88.974C181.379 88.666 181.566 88.232 181.566 87.672C181.566 87.1213 181.375 86.692 180.992 86.384C180.619 86.0667 180.096 85.908 179.424 85.908H177.296V89.436H179.452ZM191.653 88.218H187.313L186.487 90.5H185.115L188.769 80.812H190.211L193.851 90.5H192.479L191.653 88.218ZM191.289 87.224L189.483 82.24L187.677 87.224H191.289ZM202.785 87.938C202.785 88.4047 202.673 88.8387 202.449 89.24C202.225 89.6413 201.884 89.968 201.427 90.22C200.969 90.472 200.405 90.598 199.733 90.598C199.079 90.598 198.496 90.4813 197.983 90.248C197.479 90.0053 197.073 89.6787 196.765 89.268C196.466 88.848 196.293 88.372 196.247 87.84H197.605C197.633 88.12 197.726 88.3953 197.885 88.666C198.053 88.9273 198.286 89.1467 198.585 89.324C198.893 89.492 199.261 89.576 199.691 89.576C200.251 89.576 200.68 89.4267 200.979 89.128C201.277 88.8293 201.427 88.4467 201.427 87.98C201.427 87.5787 201.319 87.252 201.105 87C200.899 86.748 200.643 86.552 200.335 86.412C200.027 86.2627 199.607 86.104 199.075 85.936C198.449 85.7307 197.945 85.5393 197.563 85.362C197.189 85.1753 196.867 84.9 196.597 84.536C196.335 84.172 196.205 83.6913 196.205 83.094C196.205 82.5807 196.326 82.128 196.569 81.736C196.821 81.344 197.175 81.0407 197.633 80.826C198.099 80.6113 198.645 80.504 199.271 80.504C200.241 80.504 201.011 80.742 201.581 81.218C202.15 81.6847 202.481 82.282 202.575 83.01H201.203C201.128 82.618 200.927 82.2727 200.601 81.974C200.274 81.6753 199.831 81.526 199.271 81.526C198.757 81.526 198.347 81.6613 198.039 81.932C197.731 82.1933 197.577 82.5667 197.577 83.052C197.577 83.4347 197.675 83.7473 197.871 83.99C198.076 84.2233 198.328 84.41 198.627 84.55C198.925 84.6807 199.336 84.83 199.859 84.998C200.493 85.2033 201.002 85.3993 201.385 85.586C201.777 85.7727 202.108 86.0573 202.379 86.44C202.649 86.8133 202.785 87.3127 202.785 87.938ZM207.172 80.63V90.5H205.898V80.63H207.172ZM214.988 80.532C216.192 80.532 217.186 80.8307 217.97 81.428C218.754 82.016 219.295 82.8233 219.594 83.85H218.25C217.998 83.1967 217.592 82.6787 217.032 82.296C216.472 81.904 215.786 81.708 214.974 81.708C214.33 81.708 213.751 81.8667 213.238 82.184C212.734 82.492 212.333 82.94 212.034 83.528C211.745 84.1067 211.6 84.788 211.6 85.572C211.6 86.3467 211.745 87.0233 212.034 87.602C212.333 88.1807 212.734 88.6287 213.238 88.946C213.751 89.254 214.33 89.408 214.974 89.408C215.786 89.408 216.472 89.2167 217.032 88.834C217.592 88.442 217.998 87.9193 218.25 87.266H219.594C219.295 88.2927 218.754 89.1047 217.97 89.702C217.186 90.29 216.192 90.584 214.988 90.584C214.064 90.584 213.247 90.374 212.538 89.954C211.829 89.5247 211.273 88.932 210.872 88.176C210.48 87.4107 210.284 86.5427 210.284 85.572C210.284 84.592 210.48 83.7193 210.872 82.954C211.273 82.1887 211.829 81.596 212.538 81.176C213.247 80.7467 214.064 80.532 214.988 80.532Z" fill="black"/>
<path d="M144.156 122.764C145.671 123.233 146.887 123.681 147.804 124.108C148.743 124.535 149.532 125.185 150.172 126.06C150.833 126.913 151.164 128.055 151.164 129.484C151.164 130.593 150.876 131.628 150.3 132.588C149.745 133.527 148.903 134.284 147.772 134.86C146.641 135.436 145.255 135.724 143.612 135.724H143.548V138.284H142.46V135.66C140.348 135.489 138.62 134.828 137.276 133.676C135.932 132.503 135.185 131.02 135.036 129.228H138.94C139.025 130.06 139.367 130.817 139.964 131.5C140.583 132.183 141.415 132.609 142.46 132.78V125.516C140.711 124.983 139.377 124.524 138.46 124.14C137.543 123.735 136.732 123.095 136.028 122.22C135.324 121.345 134.972 120.172 134.972 118.7C134.972 117.505 135.281 116.449 135.9 115.532C136.54 114.615 137.425 113.9 138.556 113.388C139.687 112.876 140.988 112.62 142.46 112.62V109.9H143.548V112.652C145.639 112.801 147.303 113.42 148.54 114.508C149.777 115.596 150.492 116.972 150.684 118.636H146.748C146.62 117.868 146.279 117.207 145.724 116.652C145.191 116.076 144.465 115.703 143.548 115.532V122.572L144.156 122.764ZM138.876 118.572C138.876 119.511 139.185 120.257 139.804 120.812C140.423 121.345 141.308 121.815 142.46 122.22V115.436C141.351 115.457 140.476 115.745 139.836 116.3C139.196 116.833 138.876 117.591 138.876 118.572ZM143.548 132.876C144.721 132.876 145.628 132.567 146.268 131.948C146.929 131.329 147.26 130.54 147.26 129.58C147.26 128.599 146.94 127.841 146.3 127.308C145.66 126.753 144.743 126.273 143.548 125.868V132.876ZM153.874 132.652C157.33 130.284 160.092 127.969 162.162 125.708C164.252 123.425 165.298 121.313 165.298 119.372C165.298 118.22 165.01 117.303 164.434 116.62C163.879 115.937 162.972 115.596 161.714 115.596C160.412 115.596 159.431 116.023 158.77 116.876C158.108 117.708 157.735 118.903 157.65 120.46H154.098C154.247 117.879 155.036 115.905 156.466 114.54C157.916 113.175 159.762 112.492 162.002 112.492C164.199 112.492 165.916 113.079 167.154 114.252C168.412 115.404 169.042 117.004 169.042 119.052C169.042 120.695 168.53 122.359 167.506 124.044C166.503 125.729 165.223 127.287 163.666 128.716C162.108 130.124 160.498 131.34 158.834 132.364H169.554V135.34H153.874V132.652ZM171.87 130.636V127.564L183.102 112.716H187.006V127.436H190.174V130.636H187.006V135.5H183.326V130.636H171.87ZM183.582 117.068L175.646 127.436H183.582V117.068ZM204.259 112.908V126.316C204.259 128.321 204.696 129.815 205.571 130.796C206.467 131.777 207.715 132.268 209.315 132.268C210.893 132.268 212.12 131.777 212.995 130.796C213.891 129.815 214.339 128.321 214.339 126.316V112.908H217.987V126.316C217.987 129.409 217.187 131.756 215.587 133.356C213.987 134.935 211.875 135.724 209.251 135.724C206.648 135.724 204.557 134.935 202.979 133.356C201.4 131.756 200.611 129.409 200.611 126.316V112.908H204.259ZM237.087 129.484C237.087 130.593 236.821 131.628 236.287 132.588C235.754 133.527 234.943 134.284 233.855 134.86C232.767 135.436 231.434 135.724 229.855 135.724C228.319 135.724 226.943 135.457 225.727 134.924C224.511 134.369 223.541 133.601 222.815 132.62C222.09 131.639 221.674 130.508 221.567 129.228H225.471C225.578 130.209 225.994 131.052 226.719 131.756C227.466 132.46 228.458 132.812 229.695 132.812C230.805 132.812 231.658 132.513 232.255 131.916C232.874 131.319 233.183 130.551 233.183 129.612C233.183 128.801 232.959 128.14 232.511 127.628C232.063 127.095 231.509 126.679 230.847 126.38C230.186 126.081 229.279 125.74 228.127 125.356C226.719 124.908 225.567 124.46 224.671 124.012C223.797 123.564 223.05 122.913 222.431 122.06C221.813 121.207 221.503 120.087 221.503 118.7C221.503 117.484 221.802 116.417 222.399 115.5C222.997 114.583 223.85 113.879 224.959 113.388C226.069 112.876 227.349 112.62 228.799 112.62C231.103 112.62 232.927 113.175 234.271 114.284C235.637 115.393 236.415 116.844 236.607 118.636H232.671C232.522 117.783 232.117 117.057 231.455 116.46C230.815 115.841 229.93 115.532 228.799 115.532C227.775 115.532 226.954 115.799 226.335 116.332C225.717 116.844 225.407 117.591 225.407 118.572C225.407 119.34 225.621 119.98 226.047 120.492C226.474 120.983 227.007 121.377 227.647 121.676C228.309 121.953 229.205 122.284 230.335 122.668C231.765 123.116 232.927 123.575 233.823 124.044C234.741 124.492 235.509 125.153 236.127 126.028C236.767 126.903 237.087 128.055 237.087 129.484ZM260.131 124.172C260.131 126.455 259.662 128.449 258.723 130.156C257.806 131.841 256.451 133.153 254.659 134.092C252.889 135.031 250.766 135.5 248.291 135.5H240.739V112.908H248.291C250.766 112.908 252.889 113.377 254.659 114.316C256.451 115.233 257.806 116.535 258.723 118.22C259.662 119.905 260.131 121.889 260.131 124.172ZM248.003 132.204C250.713 132.204 252.793 131.5 254.243 130.092C255.694 128.684 256.419 126.711 256.419 124.172C256.419 121.633 255.694 119.66 254.243 118.252C252.793 116.844 250.713 116.14 248.003 116.14H244.387V132.204H248.003Z" fill="black"/>
<path d="M172.672 164.852C172.672 165.993 172.443 166.991 171.984 167.844C171.525 168.687 170.848 169.343 169.952 169.812C169.067 170.271 168 170.5 166.752 170.5H163.168V159.22H166.752C168 159.22 169.067 159.449 169.952 159.908C170.848 160.356 171.525 161.007 171.984 161.86C172.443 162.703 172.672 163.7 172.672 164.852ZM166.64 169.188C168.112 169.188 169.237 168.809 170.016 168.052C170.795 167.295 171.184 166.228 171.184 164.852C171.184 163.476 170.795 162.409 170.016 161.652C169.248 160.884 168.123 160.5 166.64 160.5H164.624V169.188H166.64ZM178.237 161.604C179.09 161.604 179.81 161.817 180.397 162.244C180.994 162.671 181.41 163.241 181.645 163.956V161.716H183.101V170.5H181.645V168.26C181.41 168.975 180.994 169.545 180.397 169.972C179.81 170.399 179.09 170.612 178.237 170.612C177.458 170.612 176.765 170.431 176.157 170.068C175.549 169.705 175.069 169.188 174.717 168.516C174.375 167.833 174.205 167.033 174.205 166.116C174.205 165.199 174.375 164.399 174.717 163.716C175.069 163.033 175.549 162.511 176.157 162.148C176.765 161.785 177.458 161.604 178.237 161.604ZM178.653 162.9C177.757 162.9 177.037 163.188 176.493 163.764C175.959 164.329 175.693 165.113 175.693 166.116C175.693 167.119 175.959 167.908 176.493 168.484C177.037 169.049 177.757 169.332 178.653 169.332C179.229 169.332 179.741 169.199 180.189 168.932C180.647 168.665 181.005 168.292 181.261 167.812C181.517 167.321 181.645 166.756 181.645 166.116C181.645 165.476 181.517 164.911 181.261 164.42C181.005 163.929 180.647 163.556 180.189 163.3C179.741 163.033 179.229 162.9 178.653 162.9ZM186.026 161.716L188.874 168.628L191.514 161.716H193.13L187.914 174.66H186.266L188.09 170.356L184.394 161.716H186.026ZM199.874 165.956V170.5H198.418V159.22H202.002C203.293 159.22 204.258 159.524 204.898 160.132C205.538 160.729 205.858 161.551 205.858 162.596C205.858 163.652 205.527 164.479 204.866 165.076C204.205 165.663 203.25 165.956 202.002 165.956H199.874ZM201.874 164.74C202.759 164.74 203.394 164.553 203.778 164.18C204.173 163.807 204.37 163.279 204.37 162.596C204.37 161.892 204.173 161.359 203.778 160.996C203.394 160.623 202.759 160.436 201.874 160.436H199.874V164.74H201.874ZM211.159 161.604C212.012 161.604 212.732 161.817 213.319 162.244C213.916 162.671 214.332 163.241 214.567 163.956V161.716H216.023V170.5H214.567V168.26C214.332 168.975 213.916 169.545 213.319 169.972C212.732 170.399 212.012 170.612 211.159 170.612C210.38 170.612 209.687 170.431 209.079 170.068C208.471 169.705 207.991 169.188 207.639 168.516C207.297 167.833 207.127 167.033 207.127 166.116C207.127 165.199 207.297 164.399 207.639 163.716C207.991 163.033 208.471 162.511 209.079 162.148C209.687 161.785 210.38 161.604 211.159 161.604ZM211.575 162.9C210.679 162.9 209.959 163.188 209.415 163.764C208.881 164.329 208.615 165.113 208.615 166.116C208.615 167.119 208.881 167.908 209.415 168.484C209.959 169.049 210.679 169.332 211.575 169.332C212.151 169.332 212.663 169.199 213.111 168.932C213.569 168.665 213.927 168.292 214.183 167.812C214.439 167.321 214.567 166.756 214.567 166.116C214.567 165.476 214.439 164.911 214.183 164.42C213.927 163.929 213.569 163.556 213.111 163.3C212.663 163.033 212.151 162.9 211.575 162.9ZM221.092 161.604C222.084 161.604 222.879 161.865 223.476 162.388C224.084 162.9 224.452 163.593 224.58 164.468H223.188C223.124 163.945 222.905 163.519 222.532 163.188C222.169 162.847 221.679 162.676 221.06 162.676C220.537 162.676 220.127 162.804 219.828 163.06C219.54 163.305 219.396 163.641 219.396 164.068C219.396 164.388 219.492 164.649 219.684 164.852C219.887 165.044 220.132 165.193 220.42 165.3C220.719 165.396 221.124 165.503 221.636 165.62C222.287 165.769 222.809 165.924 223.204 166.084C223.609 166.233 223.951 166.479 224.228 166.82C224.516 167.161 224.66 167.62 224.66 168.196C224.66 168.911 224.388 169.492 223.844 169.94C223.311 170.388 222.596 170.612 221.7 170.612C220.655 170.612 219.801 170.361 219.14 169.86C218.479 169.359 218.089 168.66 217.972 167.764H219.38C219.433 168.297 219.663 168.729 220.068 169.06C220.484 169.391 221.028 169.556 221.7 169.556C222.201 169.556 222.591 169.428 222.868 169.172C223.156 168.916 223.3 168.58 223.3 168.164C223.3 167.823 223.199 167.551 222.996 167.348C222.793 167.145 222.543 166.991 222.244 166.884C221.945 166.777 221.535 166.665 221.012 166.548C220.361 166.399 219.839 166.249 219.444 166.1C219.06 165.951 218.729 165.716 218.452 165.396C218.185 165.065 218.052 164.623 218.052 164.068C218.052 163.332 218.324 162.74 218.868 162.292C219.412 161.833 220.153 161.604 221.092 161.604ZM229.358 161.604C230.35 161.604 231.144 161.865 231.742 162.388C232.35 162.9 232.718 163.593 232.846 164.468H231.454C231.39 163.945 231.171 163.519 230.798 163.188C230.435 162.847 229.944 162.676 229.326 162.676C228.803 162.676 228.392 162.804 228.094 163.06C227.806 163.305 227.662 163.641 227.662 164.068C227.662 164.388 227.758 164.649 227.95 164.852C228.152 165.044 228.398 165.193 228.686 165.3C228.984 165.396 229.39 165.503 229.902 165.62C230.552 165.769 231.075 165.924 231.47 166.084C231.875 166.233 232.216 166.479 232.494 166.82C232.782 167.161 232.926 167.62 232.926 168.196C232.926 168.911 232.654 169.492 232.11 169.94C231.576 170.388 230.862 170.612 229.966 170.612C228.92 170.612 228.067 170.361 227.406 169.86C226.744 169.359 226.355 168.66 226.238 167.764H227.646C227.699 168.297 227.928 168.729 228.334 169.06C228.75 169.391 229.294 169.556 229.966 169.556C230.467 169.556 230.856 169.428 231.134 169.172C231.422 168.916 231.566 168.58 231.566 168.164C231.566 167.823 231.464 167.551 231.262 167.348C231.059 167.145 230.808 166.991 230.51 166.884C230.211 166.777 229.8 166.665 229.278 166.548C228.627 166.399 228.104 166.249 227.71 166.1C227.326 165.951 226.995 165.716 226.718 165.396C226.451 165.065 226.318 164.623 226.318 164.068C226.318 163.332 226.59 162.74 227.134 162.292C227.678 161.833 228.419 161.604 229.358 161.604Z" fill="black"/>
<path d="M134 247.584C57.4999 219.584 120.5 99.5837 -6.22665 121.006" stroke="white" stroke-opacity="0.9" stroke-width="0.5"/>
<path d="M123.016 263.232C56.4992 227.084 82.9999 124.084 -5.02921 149.265" stroke="white" stroke-opacity="0.9" stroke-width="0.5"/>
<path d="M107.294 260.713C43.505 223.083 93.1689 188.583 -15 188.583" stroke="white" stroke-opacity="0.9" stroke-width="0.5"/>
</g>
<rect x="0.5" y="0.5" width="395" height="251" rx="23.5" stroke="url(#paint1_linear_685_424)"/>
</g>
<defs>
<filter id="filter0_b_685_424" x="-200" y="-200" width="796" height="652" filterUnits="userSpaceOnUse" color-interpolation-filters="sRGB">
<feFlood flood-opacity="0" result="BackgroundImageFix"/>
<feGaussianBlur in="BackgroundImageFix" stdDeviation="100"/>
<feComposite in2="SourceAlpha" operator="in" result="effect1_backgroundBlur_685_424"/>
<feBlend mode="normal" in="SourceGraphic" in2="effect1_backgroundBlur_685_424" result="shape"/>
</filter>
<radialGradient id="paint0_radial_685_424" cx="0" cy="0" r="1" gradientUnits="userSpaceOnUse" gradientTransform="translate(63.5 34.0268) rotate(32.0511) scale(320.916 316.74)">
<stop offset="0.18201" stop-color="#E2E2E2"/>
<stop offset="1" stop-color="white"/>
</radialGradient>
<linearGradient id="paint1_linear_685_424" x1="-44.5" y1="-76.6443" x2="442.4" y2="86.9435" gradientUnits="userSpaceOnUse">
<stop stop-color="white"/>
<stop offset="1" stop-color="#F6F6F6" stop-opacity="0.9"/>
</linearGradient>
<clipPath id="clip0_685_424">
<rect width="396" height="252" rx="24" fill="white"/>
</clipPath>
</defs>
</svg>
