<svg width="396" height="252" viewBox="0 0 396 252" fill="none" xmlns="http://www.w3.org/2000/svg">
<g clip-path="url(#clip0_685_432)">
<rect width="396" height="252" rx="24" fill="url(#paint0_radial_685_432)"/>
<path d="M165.796 86.524V90.5H164.522V80.63H167.658C168.787 80.63 169.632 80.896 170.192 81.428C170.752 81.9507 171.032 82.6693 171.032 83.584C171.032 84.508 170.743 85.2313 170.164 85.754C169.585 86.2673 168.75 86.524 167.658 86.524H165.796ZM167.546 85.46C168.321 85.46 168.876 85.2967 169.212 84.97C169.557 84.6433 169.73 84.1813 169.73 83.584C169.73 82.968 169.557 82.5013 169.212 82.184C168.876 81.8573 168.321 81.694 167.546 81.694H165.796V85.46H167.546ZM179.156 90.5L176.58 86.468H175.194V90.5H173.92V80.63H177.168C178.288 80.63 179.128 80.9007 179.688 81.442C180.248 81.974 180.528 82.6833 180.528 83.57C180.528 84.3727 180.304 85.0213 179.856 85.516C179.408 86.0013 178.759 86.3047 177.91 86.426L180.598 90.5H179.156ZM175.194 85.544H177.056C178.503 85.544 179.226 84.9093 179.226 83.64C179.226 82.3707 178.503 81.736 177.056 81.736H175.194V85.544ZM184.756 81.666V85.04H188.508V86.02H184.756V89.464H188.928V90.5H183.482V80.63H188.928V81.666H184.756ZM201.848 80.798V90.5H200.574V82.758L197.48 90.5H196.346L193.238 82.786V90.5H191.964V80.798H193.49L196.934 88.946L200.322 80.798H201.848ZM206.56 80.63V90.5H205.286V80.63H206.56ZM211.212 80.63V86.552C211.212 87.5227 211.427 88.2413 211.856 88.708C212.286 89.1653 212.878 89.394 213.634 89.394C214.381 89.394 214.964 89.1607 215.384 88.694C215.804 88.2273 216.014 87.5133 216.014 86.552V80.63H217.288V86.552C217.288 87.896 216.952 88.9087 216.28 89.59C215.618 90.262 214.726 90.598 213.606 90.598C212.496 90.598 211.604 90.262 210.932 89.59C210.27 88.9087 209.938 87.896 209.938 86.552V80.63H211.212ZM230.548 80.798V90.5H229.274V82.758L226.18 90.5H225.046L221.938 82.786V90.5H220.664V80.798H222.19L225.634 88.946L229.022 80.798H230.548Z" fill="black"/>
<path d="M145.656 122.764C147.171 123.233 148.387 123.681 149.304 124.108C150.243 124.535 151.032 125.185 151.672 126.06C152.333 126.913 152.664 128.055 152.664 129.484C152.664 130.593 152.376 131.628 151.8 132.588C151.245 133.527 150.403 134.284 149.272 134.86C148.141 135.436 146.755 135.724 145.112 135.724H145.048V138.284H143.96V135.66C141.848 135.489 140.12 134.828 138.776 133.676C137.432 132.503 136.685 131.02 136.536 129.228H140.44C140.525 130.06 140.867 130.817 141.464 131.5C142.083 132.183 142.915 132.609 143.96 132.78V125.516C142.211 124.983 140.877 124.524 139.96 124.14C139.043 123.735 138.232 123.095 137.528 122.22C136.824 121.345 136.472 120.172 136.472 118.7C136.472 117.505 136.781 116.449 137.4 115.532C138.04 114.615 138.925 113.9 140.056 113.388C141.187 112.876 142.488 112.62 143.96 112.62V109.9H145.048V112.652C147.139 112.801 148.803 113.42 150.04 114.508C151.277 115.596 151.992 116.972 152.184 118.636H148.248C148.12 117.868 147.779 117.207 147.224 116.652C146.691 116.076 145.965 115.703 145.048 115.532V122.572L145.656 122.764ZM140.376 118.572C140.376 119.511 140.685 120.257 141.304 120.812C141.923 121.345 142.808 121.815 143.96 122.22V115.436C142.851 115.457 141.976 115.745 141.336 116.3C140.696 116.833 140.376 117.591 140.376 118.572ZM145.048 132.876C146.221 132.876 147.128 132.567 147.768 131.948C148.429 131.329 148.76 130.54 148.76 129.58C148.76 128.599 148.44 127.841 147.8 127.308C147.16 126.753 146.243 126.273 145.048 125.868V132.876ZM169.486 115.532L161.07 135.5H157.23L165.774 115.948H154.574V112.78H169.486V115.532ZM175.977 128.972C176.147 130.188 176.563 131.127 177.225 131.788C177.907 132.449 178.825 132.78 179.977 132.78C181.598 132.78 182.803 132.14 183.593 130.86C184.403 129.559 184.809 127.521 184.809 124.748L184.777 123.66C184.435 124.812 183.721 125.74 182.633 126.444C181.566 127.127 180.318 127.468 178.889 127.468C176.67 127.468 174.931 126.807 173.673 125.484C172.414 124.14 171.785 122.273 171.785 119.884C171.785 118.433 172.073 117.132 172.649 115.98C173.225 114.828 174.089 113.921 175.241 113.26C176.393 112.577 177.811 112.236 179.497 112.236C182.761 112.236 185.001 113.239 186.217 115.244C187.454 117.228 188.073 119.98 188.073 123.5C188.073 127.489 187.443 130.529 186.185 132.62C184.947 134.711 182.878 135.756 179.977 135.756C177.737 135.756 175.977 135.127 174.697 133.868C173.438 132.588 172.713 130.956 172.521 128.972H175.977ZM184.425 120.268C184.425 118.881 184.019 117.729 183.209 116.812C182.419 115.873 181.225 115.404 179.625 115.404C178.302 115.404 177.235 115.799 176.425 116.588C175.635 117.377 175.241 118.487 175.241 119.916C175.241 121.431 175.635 122.593 176.425 123.404C177.235 124.215 178.334 124.62 179.72 124.62C180.531 124.62 181.289 124.46 181.993 124.14C182.718 123.799 183.305 123.308 183.753 122.668C184.201 122.007 184.425 121.207 184.425 120.268ZM202.915 112.908V126.316C202.915 128.321 203.352 129.815 204.227 130.796C205.123 131.777 206.371 132.268 207.971 132.268C209.549 132.268 210.776 131.777 211.651 130.796C212.547 129.815 212.995 128.321 212.995 126.316V112.908H216.643V126.316C216.643 129.409 215.843 131.756 214.243 133.356C212.643 134.935 210.531 135.724 207.907 135.724C205.304 135.724 203.213 134.935 201.635 133.356C200.056 131.756 199.267 129.409 199.267 126.316V112.908H202.915ZM235.744 129.484C235.744 130.593 235.477 131.628 234.944 132.588C234.41 133.527 233.6 134.284 232.512 134.86C231.424 135.436 230.09 135.724 228.512 135.724C226.976 135.724 225.6 135.457 224.384 134.924C223.168 134.369 222.197 133.601 221.472 132.62C220.746 131.639 220.33 130.508 220.224 129.228H224.128C224.234 130.209 224.65 131.052 225.376 131.756C226.122 132.46 227.114 132.812 228.352 132.812C229.461 132.812 230.314 132.513 230.912 131.916C231.53 131.319 231.84 130.551 231.84 129.612C231.84 128.801 231.616 128.14 231.168 127.628C230.72 127.095 230.165 126.679 229.504 126.38C228.842 126.081 227.936 125.74 226.784 125.356C225.376 124.908 224.224 124.46 223.328 124.012C222.453 123.564 221.706 122.913 221.088 122.06C220.469 121.207 220.16 120.087 220.16 118.7C220.16 117.484 220.458 116.417 221.056 115.5C221.653 114.583 222.506 113.879 223.616 113.388C224.725 112.876 226.005 112.62 227.456 112.62C229.76 112.62 231.584 113.175 232.928 114.284C234.293 115.393 235.072 116.844 235.264 118.636H231.328C231.178 117.783 230.773 117.057 230.112 116.46C229.472 115.841 228.586 115.532 227.456 115.532C226.432 115.532 225.61 115.799 224.992 116.332C224.373 116.844 224.064 117.591 224.064 118.572C224.064 119.34 224.277 119.98 224.704 120.492C225.13 120.983 225.664 121.377 226.304 121.676C226.965 121.953 227.861 122.284 228.992 122.668C230.421 123.116 231.584 123.575 232.48 124.044C233.397 124.492 234.165 125.153 234.784 126.028C235.424 126.903 235.744 128.055 235.744 129.484ZM258.788 124.172C258.788 126.455 258.318 128.449 257.38 130.156C256.462 131.841 255.108 133.153 253.316 134.092C251.545 135.031 249.422 135.5 246.948 135.5H239.396V112.908H246.948C249.422 112.908 251.545 113.377 253.316 114.316C255.108 115.233 256.462 116.535 257.38 118.22C258.318 119.905 258.788 121.889 258.788 124.172ZM246.66 132.204C249.369 132.204 251.449 131.5 252.9 130.092C254.35 128.684 255.076 126.711 255.076 124.172C255.076 121.633 254.35 119.66 252.9 118.252C251.449 116.844 249.369 116.14 246.66 116.14H243.044V132.204H246.66Z" fill="black"/>
<path d="M171.04 159.22L168.176 170.5H166.4L163.792 161.284L161.184 170.5H159.408L156.528 159.22H158.144L160.304 168.804L162.976 159.22H164.592L167.264 168.772L169.44 159.22H171.04ZM180.826 165.62C180.826 165.929 180.805 166.196 180.762 166.42H173.738C173.77 167.423 174.053 168.175 174.586 168.676C175.13 169.177 175.791 169.428 176.57 169.428C177.274 169.428 177.861 169.252 178.33 168.9C178.81 168.537 179.103 168.057 179.21 167.46H180.762C180.655 168.068 180.415 168.612 180.042 169.092C179.679 169.572 179.205 169.945 178.618 170.212C178.031 170.479 177.37 170.612 176.634 170.612C175.791 170.612 175.045 170.431 174.394 170.068C173.743 169.705 173.231 169.188 172.858 168.516C172.495 167.833 172.314 167.033 172.314 166.116C172.314 165.199 172.495 164.399 172.858 163.716C173.231 163.033 173.743 162.511 174.394 162.148C175.045 161.785 175.791 161.604 176.634 161.604C177.487 161.604 178.229 161.785 178.858 162.148C179.498 162.511 179.983 162.996 180.314 163.604C180.655 164.212 180.826 164.884 180.826 165.62ZM179.354 165.716C179.386 165.065 179.279 164.521 179.034 164.084C178.789 163.647 178.453 163.321 178.026 163.108C177.599 162.895 177.135 162.788 176.634 162.788C175.834 162.788 175.162 163.039 174.618 163.54C174.074 164.031 173.781 164.756 173.738 165.716H179.354ZM190.811 165.62C190.811 165.929 190.789 166.196 190.747 166.42H183.723C183.755 167.423 184.037 168.175 184.571 168.676C185.115 169.177 185.776 169.428 186.555 169.428C187.259 169.428 187.845 169.252 188.315 168.9C188.795 168.537 189.088 168.057 189.195 167.46H190.747C190.64 168.068 190.4 168.612 190.027 169.092C189.664 169.572 189.189 169.945 188.603 170.212C188.016 170.479 187.355 170.612 186.619 170.612C185.776 170.612 185.029 170.431 184.379 170.068C183.728 169.705 183.216 169.188 182.843 168.516C182.48 167.833 182.299 167.033 182.299 166.116C182.299 165.199 182.48 164.399 182.843 163.716C183.216 163.033 183.728 162.511 184.379 162.148C185.029 161.785 185.776 161.604 186.619 161.604C187.472 161.604 188.213 161.785 188.843 162.148C189.483 162.511 189.968 162.996 190.299 163.604C190.64 164.212 190.811 164.884 190.811 165.62ZM189.339 165.716C189.371 165.065 189.264 164.521 189.019 164.084C188.773 163.647 188.437 163.321 188.011 163.108C187.584 162.895 187.12 162.788 186.619 162.788C185.819 162.788 185.147 163.039 184.603 163.54C184.059 164.031 183.765 164.756 183.723 165.716H189.339ZM197.531 170.5L194.171 166.548V170.5H192.715V158.66H194.171V165.54L197.483 161.716H199.259L195.323 166.084L199.355 170.5H197.531ZM206.046 165.956V170.5H204.59V159.22H208.174C209.465 159.22 210.43 159.524 211.07 160.132C211.71 160.729 212.03 161.551 212.03 162.596C212.03 163.652 211.699 164.479 211.038 165.076C210.377 165.663 209.422 165.956 208.174 165.956H206.046ZM208.046 164.74C208.931 164.74 209.566 164.553 209.95 164.18C210.345 163.807 210.542 163.279 210.542 162.596C210.542 161.892 210.345 161.359 209.95 160.996C209.566 160.623 208.931 160.436 208.046 160.436H206.046V164.74H208.046ZM217.331 161.604C218.184 161.604 218.904 161.817 219.491 162.244C220.088 162.671 220.504 163.241 220.739 163.956V161.716H222.195V170.5H220.739V168.26C220.504 168.975 220.088 169.545 219.491 169.972C218.904 170.399 218.184 170.612 217.331 170.612C216.552 170.612 215.859 170.431 215.251 170.068C214.643 169.705 214.163 169.188 213.811 168.516C213.469 167.833 213.299 167.033 213.299 166.116C213.299 165.199 213.469 164.399 213.811 163.716C214.163 163.033 214.643 162.511 215.251 162.148C215.859 161.785 216.552 161.604 217.331 161.604ZM217.747 162.9C216.851 162.9 216.131 163.188 215.587 163.764C215.053 164.329 214.787 165.113 214.787 166.116C214.787 167.119 215.053 167.908 215.587 168.484C216.131 169.049 216.851 169.332 217.747 169.332C218.323 169.332 218.835 169.199 219.283 168.932C219.741 168.665 220.099 168.292 220.355 167.812C220.611 167.321 220.739 166.756 220.739 166.116C220.739 165.476 220.611 164.911 220.355 164.42C220.099 163.929 219.741 163.556 219.283 163.3C218.835 163.033 218.323 162.9 217.747 162.9ZM227.264 161.604C228.256 161.604 229.05 161.865 229.648 162.388C230.256 162.9 230.624 163.593 230.752 164.468H229.36C229.296 163.945 229.077 163.519 228.704 163.188C228.341 162.847 227.85 162.676 227.232 162.676C226.709 162.676 226.298 162.804 226 163.06C225.712 163.305 225.568 163.641 225.568 164.068C225.568 164.388 225.664 164.649 225.856 164.852C226.058 165.044 226.304 165.193 226.592 165.3C226.89 165.396 227.296 165.503 227.808 165.62C228.458 165.769 228.981 165.924 229.376 166.084C229.781 166.233 230.122 166.479 230.4 166.82C230.688 167.161 230.832 167.62 230.832 168.196C230.832 168.911 230.56 169.492 230.016 169.94C229.482 170.388 228.768 170.612 227.872 170.612C226.826 170.612 225.973 170.361 225.312 169.86C224.65 169.359 224.261 168.66 224.144 167.764H225.552C225.605 168.297 225.834 168.729 226.24 169.06C226.656 169.391 227.2 169.556 227.872 169.556C228.373 169.556 228.762 169.428 229.04 169.172C229.328 168.916 229.472 168.58 229.472 168.164C229.472 167.823 229.37 167.551 229.168 167.348C228.965 167.145 228.714 166.991 228.416 166.884C228.117 166.777 227.706 166.665 227.184 166.548C226.533 166.399 226.01 166.249 225.616 166.1C225.232 165.951 224.901 165.716 224.624 165.396C224.357 165.065 224.224 164.623 224.224 164.068C224.224 163.332 224.496 162.74 225.04 162.292C225.584 161.833 226.325 161.604 227.264 161.604ZM235.529 161.604C236.521 161.604 237.316 161.865 237.913 162.388C238.521 162.9 238.889 163.593 239.017 164.468H237.625C237.561 163.945 237.343 163.519 236.969 163.188C236.607 162.847 236.116 162.676 235.497 162.676C234.975 162.676 234.564 162.804 234.265 163.06C233.977 163.305 233.833 163.641 233.833 164.068C233.833 164.388 233.929 164.649 234.121 164.852C234.324 165.044 234.569 165.193 234.857 165.3C235.156 165.396 235.561 165.503 236.073 165.62C236.724 165.769 237.247 165.924 237.641 166.084C238.047 166.233 238.388 166.479 238.665 166.82C238.953 167.161 239.097 167.62 239.097 168.196C239.097 168.911 238.825 169.492 238.281 169.94C237.748 170.388 237.033 170.612 236.137 170.612C235.092 170.612 234.239 170.361 233.577 169.86C232.916 169.359 232.527 168.66 232.409 167.764H233.817C233.871 168.297 234.1 168.729 234.505 169.06C234.921 169.391 235.465 169.556 236.137 169.556C236.639 169.556 237.028 169.428 237.305 169.172C237.593 168.916 237.737 168.58 237.737 168.164C237.737 167.823 237.636 167.551 237.433 167.348C237.231 167.145 236.98 166.991 236.681 166.884C236.383 166.777 235.972 166.665 235.449 166.548C234.799 166.399 234.276 166.249 233.881 166.1C233.497 165.951 233.167 165.716 232.889 165.396C232.623 165.065 232.489 164.623 232.489 164.068C232.489 163.332 232.761 162.74 233.305 162.292C233.849 161.833 234.591 161.604 235.529 161.604Z" fill="black"/>
<path d="M270.5 249C347 221 284 101 410.726 122.422" stroke="white" stroke-opacity="0.9" stroke-width="0.5"/>
<path d="M281.484 264.647C348.001 228.5 321.5 125.5 409.529 150.681" stroke="white" stroke-opacity="0.9" stroke-width="0.5"/>
<path d="M297.206 262.13C360.995 224.501 311.331 190.001 419.5 190.001" stroke="white" stroke-opacity="0.9" stroke-width="0.5"/>
</g>
<rect x="0.5" y="0.5" width="395" height="251" rx="23.5" stroke="url(#paint1_linear_685_432)"/>
<defs>
<radialGradient id="paint0_radial_685_432" cx="0" cy="0" r="1" gradientUnits="userSpaceOnUse" gradientTransform="translate(16.5 -15.3287) rotate(14.9509) scale(546.5 133.233)">
<stop stop-color="#FF9C7C"/>
<stop offset="1" stop-color="#FF7143"/>
</radialGradient>
<linearGradient id="paint1_linear_685_432" x1="-451" y1="-268.003" x2="372.279" y2="-39.006" gradientUnits="userSpaceOnUse">
<stop stop-color="#FEFEFE"/>
<stop offset="1" stop-color="#F6F6F6" stop-opacity="0.9"/>
</linearGradient>
<clipPath id="clip0_685_432">
<rect width="396" height="252" rx="24" fill="white"/>
</clipPath>
</defs>
</svg>
