<svg width="398" height="254" viewBox="0 0 398 254" fill="none" xmlns="http://www.w3.org/2000/svg">
<g clip-path="url(#clip0_685_416)">
<rect x="1" y="1" width="396" height="252" rx="24" fill="url(#paint0_radial_685_416)"/>
<path d="M174.266 88.938C174.266 89.4047 174.154 89.8387 173.93 90.24C173.706 90.6413 173.365 90.968 172.908 91.22C172.451 91.472 171.886 91.598 171.214 91.598C170.561 91.598 169.977 91.4813 169.464 91.248C168.96 91.0053 168.554 90.6787 168.246 90.268C167.947 89.848 167.775 89.372 167.728 88.84H169.086C169.114 89.12 169.207 89.3953 169.366 89.666C169.534 89.9273 169.767 90.1467 170.066 90.324C170.374 90.492 170.743 90.576 171.172 90.576C171.732 90.576 172.161 90.4267 172.46 90.128C172.759 89.8293 172.908 89.4467 172.908 88.98C172.908 88.5787 172.801 88.252 172.586 88C172.381 87.748 172.124 87.552 171.816 87.412C171.508 87.2627 171.088 87.104 170.556 86.936C169.931 86.7307 169.427 86.5393 169.044 86.362C168.671 86.1753 168.349 85.9 168.078 85.536C167.817 85.172 167.686 84.6913 167.686 84.094C167.686 83.5807 167.807 83.128 168.05 82.736C168.302 82.344 168.657 82.0407 169.114 81.826C169.581 81.6113 170.127 81.504 170.752 81.504C171.723 81.504 172.493 81.742 173.062 82.218C173.631 82.6847 173.963 83.282 174.056 84.01H172.684C172.609 83.618 172.409 83.2727 172.082 82.974C171.755 82.6753 171.312 82.526 170.752 82.526C170.239 82.526 169.828 82.6613 169.52 82.932C169.212 83.1933 169.058 83.5667 169.058 84.052C169.058 84.4347 169.156 84.7473 169.352 84.99C169.557 85.2233 169.809 85.41 170.108 85.55C170.407 85.6807 170.817 85.83 171.34 85.998C171.975 86.2033 172.483 86.3993 172.866 86.586C173.258 86.7727 173.589 87.0573 173.86 87.44C174.131 87.8133 174.266 88.3127 174.266 88.938ZM183.427 81.63V82.666H180.641V91.5H179.367V82.666H176.581V81.63H183.427ZM191.875 89.218H187.535L186.709 91.5H185.337L188.991 81.812H190.433L194.073 91.5H192.701L191.875 89.218ZM191.511 88.224L189.705 83.24L187.899 88.224H191.511ZM201.999 91.5L199.423 87.468H198.037V91.5H196.763V81.63H200.011C201.131 81.63 201.971 81.9007 202.531 82.442C203.091 82.974 203.371 83.6833 203.371 84.57C203.371 85.3727 203.147 86.0213 202.699 86.516C202.251 87.0013 201.602 87.3047 200.753 87.426L203.441 91.5H201.999ZM198.037 86.544H199.899C201.346 86.544 202.069 85.9093 202.069 84.64C202.069 83.3707 201.346 82.736 199.899 82.736H198.037V86.544ZM212.373 81.63V82.666H209.587V91.5H208.313V82.666H205.527V81.63H212.373ZM216.314 82.666V86.04H220.066V87.02H216.314V90.464H220.486V91.5H215.04V81.63H220.486V82.666H216.314ZM228.758 91.5L226.182 87.468H224.796V91.5H223.522V81.63H226.77C227.89 81.63 228.73 81.9007 229.29 82.442C229.85 82.974 230.13 83.6833 230.13 84.57C230.13 85.3727 229.906 86.0213 229.458 86.516C229.01 87.0013 228.361 87.3047 227.512 87.426L230.2 91.5H228.758ZM224.796 86.544H226.658C228.104 86.544 228.828 85.9093 228.828 84.64C228.828 83.3707 228.104 82.736 226.658 82.736H224.796V86.544Z" fill="white"/>
<path d="M149.656 123.764C151.171 124.233 152.387 124.681 153.304 125.108C154.243 125.535 155.032 126.185 155.672 127.06C156.333 127.913 156.664 129.055 156.664 130.484C156.664 131.593 156.376 132.628 155.8 133.588C155.245 134.527 154.403 135.284 153.272 135.86C152.141 136.436 150.755 136.724 149.112 136.724H149.048V139.284H147.96V136.66C145.848 136.489 144.12 135.828 142.776 134.676C141.432 133.503 140.685 132.02 140.536 130.228H144.44C144.525 131.06 144.867 131.817 145.464 132.5C146.083 133.183 146.915 133.609 147.96 133.78V126.516C146.211 125.983 144.877 125.524 143.96 125.14C143.043 124.735 142.232 124.095 141.528 123.22C140.824 122.345 140.472 121.172 140.472 119.7C140.472 118.505 140.781 117.449 141.4 116.532C142.04 115.615 142.925 114.9 144.056 114.388C145.187 113.876 146.488 113.62 147.96 113.62V110.9H149.048V113.652C151.139 113.801 152.803 114.42 154.04 115.508C155.277 116.596 155.992 117.972 156.184 119.636H152.248C152.12 118.868 151.779 118.207 151.224 117.652C150.691 117.076 149.965 116.703 149.048 116.532V123.572L149.656 123.764ZM144.376 119.572C144.376 120.511 144.685 121.257 145.304 121.812C145.923 122.345 146.808 122.815 147.96 123.22V116.436C146.851 116.457 145.976 116.745 145.336 117.3C144.696 117.833 144.376 118.591 144.376 119.572ZM149.048 133.876C150.221 133.876 151.128 133.567 151.768 132.948C152.429 132.329 152.76 131.54 152.76 130.58C152.76 129.599 152.44 128.841 151.8 128.308C151.16 127.753 150.243 127.273 149.048 126.868V133.876ZM158.51 117.332V113.908H165.742V136.5H161.902V117.332H158.51ZM185.218 116.788H174.05V123.508C174.562 122.847 175.288 122.324 176.226 121.94C177.165 121.535 178.2 121.332 179.33 121.332C180.909 121.332 182.221 121.673 183.266 122.356C184.312 123.017 185.08 123.903 185.57 125.012C186.082 126.121 186.338 127.348 186.338 128.692C186.338 131.06 185.677 132.98 184.354 134.452C183.032 135.903 181.112 136.628 178.594 136.628C176.226 136.628 174.317 135.999 172.866 134.74C171.416 133.481 170.626 131.807 170.498 129.716H174.082C174.274 130.868 174.744 131.775 175.49 132.436C176.258 133.097 177.229 133.428 178.402 133.428C179.853 133.428 180.941 132.991 181.666 132.116C182.392 131.241 182.754 130.079 182.754 128.628C182.754 127.263 182.381 126.196 181.634 125.428C180.888 124.639 179.821 124.244 178.434 124.244C177.453 124.244 176.589 124.457 175.842 124.884C175.117 125.311 174.584 125.876 174.242 126.58H170.69V113.556H185.218V116.788ZM201.071 113.908V127.316C201.071 129.321 201.508 130.815 202.383 131.796C203.279 132.777 204.527 133.268 206.127 133.268C207.706 133.268 208.932 132.777 209.807 131.796C210.703 130.815 211.151 129.321 211.151 127.316V113.908H214.799V127.316C214.799 130.409 213.999 132.756 212.399 134.356C210.799 135.935 208.687 136.724 206.063 136.724C203.46 136.724 201.37 135.935 199.791 134.356C198.212 132.756 197.423 130.409 197.423 127.316V113.908H201.071ZM233.9 130.484C233.9 131.593 233.633 132.628 233.1 133.588C232.566 134.527 231.756 135.284 230.668 135.86C229.58 136.436 228.246 136.724 226.668 136.724C225.132 136.724 223.756 136.457 222.54 135.924C221.324 135.369 220.353 134.601 219.628 133.62C218.902 132.639 218.486 131.508 218.38 130.228H222.284C222.39 131.209 222.806 132.052 223.532 132.756C224.278 133.46 225.27 133.812 226.508 133.812C227.617 133.812 228.47 133.513 229.068 132.916C229.686 132.319 229.996 131.551 229.996 130.612C229.996 129.801 229.772 129.14 229.324 128.628C228.876 128.095 228.321 127.679 227.66 127.38C226.998 127.081 226.092 126.74 224.94 126.356C223.532 125.908 222.38 125.46 221.484 125.012C220.609 124.564 219.862 123.913 219.244 123.06C218.625 122.207 218.316 121.087 218.316 119.7C218.316 118.484 218.614 117.417 219.212 116.5C219.809 115.583 220.662 114.879 221.772 114.388C222.881 113.876 224.161 113.62 225.612 113.62C227.916 113.62 229.74 114.175 231.084 115.284C232.449 116.393 233.228 117.844 233.42 119.636H229.484C229.334 118.783 228.929 118.057 228.268 117.46C227.628 116.841 226.742 116.532 225.612 116.532C224.588 116.532 223.766 116.799 223.148 117.332C222.529 117.844 222.22 118.591 222.22 119.572C222.22 120.34 222.433 120.98 222.86 121.492C223.286 121.983 223.82 122.377 224.46 122.676C225.121 122.953 226.017 123.284 227.148 123.668C228.577 124.116 229.74 124.575 230.636 125.044C231.553 125.492 232.321 126.153 232.94 127.028C233.58 127.903 233.9 129.055 233.9 130.484ZM256.944 125.172C256.944 127.455 256.474 129.449 255.536 131.156C254.618 132.841 253.264 134.153 251.472 135.092C249.701 136.031 247.578 136.5 245.104 136.5H237.552V113.908H245.104C247.578 113.908 249.701 114.377 251.472 115.316C253.264 116.233 254.618 117.535 255.536 119.22C256.474 120.905 256.944 122.889 256.944 125.172ZM244.816 133.204C247.525 133.204 249.605 132.5 251.056 131.092C252.506 129.684 253.232 127.711 253.232 125.172C253.232 122.633 252.506 120.66 251.056 119.252C249.605 117.844 247.525 117.14 244.816 117.14H241.2V133.204H244.816Z" fill="white"/>
<path d="M155.804 168.572C155.804 169.105 155.676 169.601 155.42 170.06C155.164 170.519 154.775 170.892 154.252 171.18C153.729 171.468 153.084 171.612 152.316 171.612C151.569 171.612 150.903 171.479 150.316 171.212C149.74 170.935 149.276 170.561 148.924 170.092C148.583 169.612 148.385 169.068 148.332 168.46H149.884C149.916 168.78 150.023 169.095 150.204 169.404C150.396 169.703 150.663 169.953 151.004 170.156C151.356 170.348 151.777 170.444 152.268 170.444C152.908 170.444 153.399 170.273 153.74 169.932C154.081 169.591 154.252 169.153 154.252 168.62C154.252 168.161 154.129 167.788 153.884 167.5C153.649 167.212 153.356 166.988 153.004 166.828C152.652 166.657 152.172 166.476 151.564 166.284C150.849 166.049 150.273 165.831 149.836 165.628C149.409 165.415 149.041 165.1 148.732 164.684C148.433 164.268 148.284 163.719 148.284 163.036C148.284 162.449 148.423 161.932 148.7 161.484C148.988 161.036 149.393 160.689 149.916 160.444C150.449 160.199 151.073 160.076 151.788 160.076C152.897 160.076 153.777 160.348 154.428 160.892C155.079 161.425 155.457 162.108 155.564 162.94H153.996C153.911 162.492 153.681 162.097 153.308 161.756C152.935 161.415 152.428 161.244 151.788 161.244C151.201 161.244 150.732 161.399 150.38 161.708C150.028 162.007 149.852 162.433 149.852 162.988C149.852 163.425 149.964 163.783 150.188 164.06C150.423 164.327 150.711 164.54 151.052 164.7C151.393 164.849 151.863 165.02 152.46 165.212C153.185 165.447 153.767 165.671 154.204 165.884C154.652 166.097 155.031 166.423 155.34 166.86C155.649 167.287 155.804 167.857 155.804 168.572ZM157.506 160.14C157.506 159.873 157.596 159.66 157.778 159.5C157.959 159.329 158.199 159.244 158.498 159.244C158.796 159.244 159.036 159.329 159.218 159.5C159.399 159.66 159.49 159.873 159.49 160.14C159.49 160.407 159.399 160.625 159.218 160.796C159.036 160.956 158.796 161.036 158.498 161.036C158.199 161.036 157.959 160.956 157.778 160.796C157.596 160.625 157.506 160.407 157.506 160.14ZM159.218 162.716V171.5H157.762V162.716H159.218ZM166.615 171.5L164.327 168.14L162.263 171.5H160.647L163.527 166.972L160.631 162.716H162.295L164.519 165.98L166.551 162.716H168.167L165.303 167.132L168.279 171.5H166.615ZM182.246 160.22V171.5H180.774V166.284H175.046V171.5H173.59V160.22H175.046V165.1H180.774V160.22H182.246ZM188.558 162.604C189.401 162.604 190.153 162.785 190.814 163.148C191.486 163.511 192.009 164.033 192.382 164.716C192.766 165.399 192.958 166.199 192.958 167.116C192.958 168.033 192.766 168.833 192.382 169.516C192.009 170.188 191.486 170.705 190.814 171.068C190.153 171.431 189.401 171.612 188.558 171.612C187.716 171.612 186.958 171.431 186.286 171.068C185.625 170.705 185.102 170.188 184.718 169.516C184.334 168.833 184.142 168.033 184.142 167.116C184.142 166.199 184.334 165.399 184.718 164.716C185.102 164.033 185.625 163.511 186.286 163.148C186.958 162.785 187.716 162.604 188.558 162.604ZM188.558 163.884C188.036 163.884 187.55 164.001 187.102 164.236C186.665 164.471 186.308 164.833 186.03 165.324C185.764 165.804 185.63 166.401 185.63 167.116C185.63 167.82 185.764 168.417 186.03 168.908C186.308 169.388 186.665 169.745 187.102 169.98C187.55 170.215 188.036 170.332 188.558 170.332C189.081 170.332 189.561 170.215 189.998 169.98C190.446 169.745 190.804 169.388 191.07 168.908C191.348 168.417 191.486 167.82 191.486 167.116C191.486 166.401 191.348 165.804 191.07 165.324C190.804 164.833 190.446 164.471 189.998 164.236C189.561 164.001 189.081 163.884 188.558 163.884ZM202.664 162.716V171.5H201.208V169.436C200.984 170.151 200.584 170.7 200.008 171.084C199.442 171.457 198.781 171.644 198.024 171.644C197.01 171.644 196.189 171.319 195.56 170.668C194.93 170.007 194.616 169.063 194.616 167.836V162.716H196.072V167.692C196.072 168.567 196.296 169.244 196.744 169.724C197.192 170.193 197.8 170.428 198.568 170.428C199.368 170.428 200.008 170.172 200.488 169.66C200.968 169.137 201.208 168.38 201.208 167.388V162.716H202.664ZM206.452 164.492C206.74 163.884 207.161 163.415 207.716 163.084C208.271 162.743 208.932 162.572 209.7 162.572V164.156H209.252C208.431 164.156 207.759 164.369 207.236 164.796C206.713 165.212 206.452 165.905 206.452 166.876V171.5H204.996V162.716H206.452V164.492ZM216.546 166.956V171.5H215.09V160.22H218.674C219.965 160.22 220.93 160.524 221.57 161.132C222.21 161.729 222.53 162.551 222.53 163.596C222.53 164.652 222.199 165.479 221.538 166.076C220.877 166.663 219.922 166.956 218.674 166.956H216.546ZM218.546 165.74C219.431 165.74 220.066 165.553 220.45 165.18C220.845 164.807 221.042 164.279 221.042 163.596C221.042 162.892 220.845 162.359 220.45 161.996C220.066 161.623 219.431 161.436 218.546 161.436H216.546V165.74H218.546ZM227.831 162.604C228.684 162.604 229.404 162.817 229.991 163.244C230.588 163.671 231.004 164.241 231.239 164.956V162.716H232.695V171.5H231.239V169.26C231.004 169.975 230.588 170.545 229.991 170.972C229.404 171.399 228.684 171.612 227.831 171.612C227.052 171.612 226.359 171.431 225.751 171.068C225.143 170.705 224.663 170.188 224.311 169.516C223.969 168.833 223.799 168.033 223.799 167.116C223.799 166.199 223.969 165.399 224.311 164.716C224.663 164.033 225.143 163.511 225.751 163.148C226.359 162.785 227.052 162.604 227.831 162.604ZM228.247 163.9C227.351 163.9 226.631 164.188 226.087 164.764C225.553 165.329 225.287 166.113 225.287 167.116C225.287 168.119 225.553 168.908 226.087 169.484C226.631 170.049 227.351 170.332 228.247 170.332C228.823 170.332 229.335 170.199 229.783 169.932C230.241 169.665 230.599 169.292 230.855 168.812C231.111 168.321 231.239 167.756 231.239 167.116C231.239 166.476 231.111 165.911 230.855 165.42C230.599 164.929 230.241 164.556 229.783 164.3C229.335 164.033 228.823 163.9 228.247 163.9ZM237.764 162.604C238.756 162.604 239.55 162.865 240.148 163.388C240.756 163.9 241.124 164.593 241.252 165.468H239.86C239.796 164.945 239.577 164.519 239.204 164.188C238.841 163.847 238.35 163.676 237.732 163.676C237.209 163.676 236.798 163.804 236.5 164.06C236.212 164.305 236.068 164.641 236.068 165.068C236.068 165.388 236.164 165.649 236.356 165.852C236.558 166.044 236.804 166.193 237.092 166.3C237.39 166.396 237.796 166.503 238.308 166.62C238.958 166.769 239.481 166.924 239.876 167.084C240.281 167.233 240.622 167.479 240.9 167.82C241.188 168.161 241.332 168.62 241.332 169.196C241.332 169.911 241.06 170.492 240.516 170.94C239.982 171.388 239.268 171.612 238.372 171.612C237.326 171.612 236.473 171.361 235.812 170.86C235.15 170.359 234.761 169.66 234.644 168.764H236.052C236.105 169.297 236.334 169.729 236.74 170.06C237.156 170.391 237.7 170.556 238.372 170.556C238.873 170.556 239.262 170.428 239.54 170.172C239.828 169.916 239.972 169.58 239.972 169.164C239.972 168.823 239.87 168.551 239.668 168.348C239.465 168.145 239.214 167.991 238.916 167.884C238.617 167.777 238.206 167.665 237.684 167.548C237.033 167.399 236.51 167.249 236.116 167.1C235.732 166.951 235.401 166.716 235.124 166.396C234.857 166.065 234.724 165.623 234.724 165.068C234.724 164.332 234.996 163.74 235.54 163.292C236.084 162.833 236.825 162.604 237.764 162.604ZM246.029 162.604C247.021 162.604 247.816 162.865 248.413 163.388C249.021 163.9 249.389 164.593 249.517 165.468H248.125C248.061 164.945 247.843 164.519 247.469 164.188C247.107 163.847 246.616 163.676 245.997 163.676C245.475 163.676 245.064 163.804 244.765 164.06C244.477 164.305 244.333 164.641 244.333 165.068C244.333 165.388 244.429 165.649 244.621 165.852C244.824 166.044 245.069 166.193 245.357 166.3C245.656 166.396 246.061 166.503 246.573 166.62C247.224 166.769 247.747 166.924 248.141 167.084C248.547 167.233 248.888 167.479 249.165 167.82C249.453 168.161 249.597 168.62 249.597 169.196C249.597 169.911 249.325 170.492 248.781 170.94C248.248 171.388 247.533 171.612 246.637 171.612C245.592 171.612 244.739 171.361 244.077 170.86C243.416 170.359 243.027 169.66 242.909 168.764H244.317C244.371 169.297 244.6 169.729 245.005 170.06C245.421 170.391 245.965 170.556 246.637 170.556C247.139 170.556 247.528 170.428 247.805 170.172C248.093 169.916 248.237 169.58 248.237 169.164C248.237 168.823 248.136 168.551 247.933 168.348C247.731 168.145 247.48 167.991 247.181 167.884C246.883 167.777 246.472 167.665 245.949 167.548C245.299 167.399 244.776 167.249 244.381 167.1C243.997 166.951 243.667 166.716 243.389 166.396C243.123 166.065 242.989 165.623 242.989 165.068C242.989 164.332 243.261 163.74 243.805 163.292C244.349 162.833 245.091 162.604 246.029 162.604Z" fill="white"/>
<path d="M271.5 250C348 222 285 102 411.726 123.422" stroke="#6B7280" stroke-opacity="0.9" stroke-width="0.5"/>
<path d="M282.484 265.647C349.001 229.5 322.5 126.5 410.529 151.681" stroke="#6B7280" stroke-opacity="0.9" stroke-width="0.5"/>
<path d="M298.206 263.13C361.995 225.501 312.331 191.001 420.5 191.001" stroke="#6B7280" stroke-opacity="0.9" stroke-width="0.5"/>
</g>
<rect x="0.5" y="0.5" width="397" height="253" rx="24.5" stroke="url(#paint1_linear_685_416)"/>
<defs>
<radialGradient id="paint0_radial_685_416" cx="0" cy="0" r="1" gradientUnits="userSpaceOnUse" gradientTransform="translate(36.5 -82.4324) rotate(21.9676) scale(751.028 182.812)">
<stop/>
<stop offset="1" stop-color="#2D2D2D"/>
</radialGradient>
<linearGradient id="paint1_linear_685_416" x1="-90" y1="204.655" x2="257.48" y2="-20.7689" gradientUnits="userSpaceOnUse">
<stop stop-color="white"/>
<stop offset="1" stop-color="#F3F3F3" stop-opacity="0.9"/>
</linearGradient>
<clipPath id="clip0_685_416">
<rect x="1" y="1" width="396" height="252" rx="24" fill="white"/>
</clipPath>
</defs>
</svg>
